<svg enable-background="new 0 0 600 850" viewBox="0 0 600 850" xmlns="http://www.w3.org/2000/svg"><g fill="#dcdcdc"><path d="m512.1 205.8.8-1c-.4-.3-.7-.6-1.1-.8l-.8 1v.1l.2.1c.3.2.6.4.9.6z"/><path d="m525.3 706.7c.4-.2.8-.3 1.2-.5v-.1l-.4-1.2h-.1c-.4.2-.8.3-1.3.5v.1z"/><path d="m512.9 72.7c.3-.3.6-.7.9-1l-1-.8h-.1c-.3.3-.6.7-.9 1v.1z"/><path d="m512.6 617 1.1-.6v-.1c-.3-.5-.5-.8-.6-1.2h-.1l-1.1.6v.1c.3.3.5.7.7 1.2z"/><path d="m510.5 414.4.1-1.2-.1-.1c-.5 0-1-.1-1.3-.1l-.2 1.3c.5.1.9.1 1.5.1z"/><path d="m510.1 612.1 1.2-.5c-.2-.4-.4-.8-.6-1.2l-1.2.6c.2.3.4.7.6 1.1z"/><path d="m507.9 607.1 1.3-.5c-.2-.4-.3-.8-.5-1.2l-1.2.5c.1.4.3.8.4 1.2z"/><path d="m508 448.8c.2-.4.5-.8.7-1.2v-.1l-1.1-.6h-.1c-.2.4-.4.8-.7 1.2z"/><path d="m514 439.8c.3-.4.6-.8.8-1l-1-.8h-.1c-.3.4-.6.7-.9 1.1z"/><path d="m527.2 632.6c-.3-.2-.7-.5-1-.8l-.8 1v.1c.4.3.8.6 1.1.8h.1z"/><path d="m510.5 442.3c-.2.4-.5.7-.8 1.1l1.1.8c.3-.4.5-.8.8-1.1z"/><path d="m515.3 208.2c.4.3.7.5 1.1.8l.8-1.1c-.4-.2-.7-.5-1.1-.8h-.1z"/><path d="m521.4 414.4-.1-1.4c-.5 0-.9.1-1.3.1v.1l.1 1.3c.4 0 .8-.1 1.3-.1z"/><path d="m523.8 60.7c.3-.3.6-.6.9-.9l-.9-1h-.1c-.3.3-.6.6-1 1v.1z"/><path d="m521.5 432.4c.4-.3.7-.6 1-.8l-.8-1h-.1c-.4.2-.7.5-1.1.8v.1z"/><path d="m520.7 210.2-.2-.1-.7 1.1c.4.2.7.5 1.2.7l.7-1.1v-.1c-.3-.1-.7-.3-1-.5z"/><path d="m526.5 412.3c-.4.1-.9.2-1.3.2l.2 1.3h.1c.4-.1.9-.1 1.3-.2v-.1z"/><path d="m525.6 214.8.7-1.1-.3-.2c-.3-.2-.5-.3-.8-.5l-.7 1.1v.1c.3.1.7.4 1.1.6z"/><path d="m523.2 629.2c-.3-.4-.7-.7-1-1l-1 .9v.1c.3.4.6.7 1 1z"/><path d="m520 64.6.2-.2c.2-.3.5-.5.7-.8l-.9-.9c-.3.3-.6.6-.9 1z"/><path d="m526.3 427.5c-.5.3-.8.5-1.2.7l.7 1.1c.4-.2.8-.5 1.1-.7v-.1z"/><path d="m517.5 435.9c.3-.3.7-.6 1-.9l-.9-1h-.1c-.3.3-.7.7-1 1z"/><path d="m514.5 414.6h1.3.1v-.1-1.2h-.2c-.4 0-.7 0-1.2 0z"/><path d="m516.4 68.6c.3-.3.5-.6.8-.9l.1-.1-1-.9h-.1c-.3.3-.6.7-.9 1z"/><path d="m515.4 710.9 1.2-.6v-.1l-.5-1.1h-.1-.1c-.4.2-.8.3-1.1.5z"/><path d="m507.1 601.5c-.1-.4-.3-.8-.4-1.2h-.1l-1.2.4c.2.4.3.9.5 1.3h.1l1.2-.5z"/><path d="m515.4 621.6 1.1-.7c-.2-.4-.5-.7-.7-1.1l-1.1.7c.2.3.4.7.7 1.1z"/><path d="m495.1 505.9c0-.5 0-.9.1-1.3l-1.3-.1h-.1v1.4z"/><path d="m493.5 184.5-1.1.8c.2.3.5.7.8 1.1h.1l1.1-.7v-.1c-.4-.2-.6-.6-.9-1.1z"/><path d="m496.2 558.5c0 .3.1.7.1 1v.3h.1l1.2-.1.1-.1c-.1-.4-.1-.9-.2-1.3h-.1z"/><path d="m497.1 484.4c.1-.4.1-.9.2-1.3l-1.3-.2c-.1.4-.1.9-.2 1.3z"/><path d="m505.8 715.7c.4-.2.8-.4 1.2-.6l-.6-1.1h-.1c-.4.2-.8.4-1.2.6v.1z"/><path d="m497.1 565.2 1.3-.1c-.1-.4-.1-.9-.2-1.3l-1.3.2c.1.3.1.7.2 1.2z"/><path d="m494.4 97.6c-.2.4-.4.8-.6 1.2l1.1.6c.2-.4.4-.8.6-1.2z"/><path d="m495.8 495.1c0-.5.1-.9.1-1.3l-1.2-.1h-.1c0 .4-.1.9-.1 1.4z"/><path d="m495.5 189.7c.3.4.6.7.8 1.1l1-.8v-.1c-.3-.4-.6-.7-.8-1.1z"/><path d="m497.9 479.1c.1-.4.2-.9.2-1.3l-1.3-.3c-.1.4-.2.8-.2 1.3z"/><path d="m499 193.9c.3.4.6.7.9 1h.1l.9-.9c-.4-.4-.7-.7-.9-1h-.1z"/><path d="m499.9 88.2c-.2.4-.5.8-.7 1.1l1.1.7h.1c.2-.4.5-.8.7-1.1z"/><path d="m498.6 411.4-.3 1.3v.1c.5.1.9.2 1.3.3l.3-1.3c-.3-.1-.6-.1-.9-.2z"/><path d="m498 472.2c-.1.4-.2.8-.3 1.3v.1l1.2.3h.1c.1-.4.2-.8.3-1.3v-.1z"/><path d="m527.6 57c.3-.2.5-.5.7-.7l.3-.3-.9-1c-.3.3-.7.6-1 .9z"/><path d="m495 509.9-1.4-.1v1.4l1.3.1c.1-.5.1-.9.1-1.4z"/><path d="m495.4 500.5c0-.5.1-.9.1-1.3v-.1l-1.2-.1h-.1c0 .5-.1.9-.1 1.4z"/><path d="m496.4 489.8c0-.3.1-.7.1-1l.1-.4-1.3-.2c0 .5-.1.9-.2 1.3v.1z"/><path d="m498.8 575.9 1.2-.2c-.1-.5-.2-.9-.2-1.3h-.1l-1.2.2v.1c.1.3.2.7.3 1.2z"/><path d="m497.9 570.5 1.3-.2h.1v-.1c-.1-.4-.1-.8-.2-1.2l-.1-.1-1.2.2v.1c0 .4.1.7.2 1.1z"/><path d="m499.9 581.2 1.3-.2c-.1-.4-.2-.9-.3-1.3h-.1l-1.3.3c.2.3.3.8.4 1.2z"/><path d="m502.6 591.8 1.2-.3v-.1c-.1-.4-.2-.9-.4-1.3h-.1l-1.2.3v.1c.2.3.3.8.5 1.3z"/><path d="m504.1 596.9 1.3-.4c-.1-.4-.3-.8-.4-1.3h-.1l-1.2.4v.1c.2.3.3.8.4 1.2z"/><path d="m496.6 721.2c.1 0 .1-.1.2-.1l.1-.1c.1-.1.2-.2.4-.2.1-.1.3-.2.4-.3l-.7-1.1c-.3.2-.5.3-.8.5-.1 0-.2.1-.2.1l-.1.1v.1z"/><path d="m501.1 718.3c.4-.2.8-.5 1.2-.7l-.7-1.1h-.1c-.4.2-.8.5-1.2.7z"/><path d="m494.9 516.6c0-.1 0-.1 0-.2 0-.4 0-.8 0-1.2l-1.3-.1h-.1v1.2.2h1.4z"/><path d="m492.3 724.3c.3-.3.7-.6 1-.8v-.1l-.8-1h-.1c-.3.2-.7.6-1.1.9z"/><path d="m495.8 554.4 1.3-.1.1-.1c-.1-.4-.1-.9-.2-1.3h-.1l-1.3.1c.1.5.1 1 .2 1.4z"/><path d="m494.1 532.9 1.2-.1v-.1c0-.4 0-.9-.1-1.3l-1.2.1h-.1c.1.5.1.9.2 1.4z"/><path d="m494.7 410.6c-.4-.1-.8-.2-1.1-.3l-.3-.1-.3 1.3v.1c.4.1.9.2 1.3.3z"/><path d="m495.2 549.1 1.3-.1v-.1c0-.3-.1-.7-.1-1v-.4l-1.3.1c0 .3.1.7.1 1z"/><path d="m494.8 543.7 1.3-.1-.1-1.4-1.3.1h-.1l.1 1.4z"/><path d="m494.3 538.3h1.3v-.1c0-.4-.1-.9-.1-1.3l-1.2.1v.1.3z"/><path d="m482.7 127.9c-.1.5-.2.9-.3 1.3l1.3.3c.1-.4.2-.9.3-1.3v-.1z"/><path d="m406.8 708.9-1.3.3v.1c.1.2.2.5.2.8l.2.5h.1l1.2-.4c-.1-.5-.2-.9-.4-1.3z"/><path d="m371.3 546.8v-.2c-.1-.4-.1-.8-.2-1.2h-.1l-1.2.2v.1c0 .2.1.4.1.7 0 .2.1.5.1.7z"/><path d="m371.8 448.8c-.1.5-.3.9-.4 1.3l1.2.4h.1c.1-.4.2-.8.3-1.2l.1-.2z"/><path d="m391.4 647.4 1.3-.2c-.1-.5-.2-.9-.3-1.3h-.1l-1.2.3v.1c.1.3.1.5.2.8 0-.1 0 0 .1.3z"/><path d="m365.9 498.5h1.2c0-.5 0-.9 0-1.3h-1.3v1z"/><path d="m369.2 459.3c-.1.4-.2.9-.3 1.3l1.3.3c.1-.4.2-.9.3-1.3z"/><path d="m370.4 454c-.1.4-.2.9-.3 1.3l1.3.3c.1-.5.2-.9.3-1.3v-.1z"/><path d="m374.4 445.4c.1-.4.3-.8.4-1.3v-.1l-1.3-.5c-.1.4-.3.8-.5 1.3z"/><path d="m368.2 464.6c-.1.5-.1.9-.2 1.3l.1.1 1.2.2h.1c.1-.4.1-.9.2-1.3z"/><path d="m422.3 743-1 .7v.1c.2.3.5.7.8 1.1h.1l1-.8c-.4-.4-.6-.8-.9-1.1z"/><path d="m420.4 403.2-.3-1.3h-.1c-.4.1-.9.2-1.3.3v.1l.3 1.2h.1c.4 0 .8-.1 1.3-.3z"/><path d="m425.6 749.1.9-.9c-.3-.3-.6-.6-.9-1l-1 .9v.1c.3.2.6.5 1 .9z"/><path d="m419.3 738.5-1.1.7v.1c.2.4.5.8.7 1.2h.1l1.1-.7c-.3-.6-.5-.9-.8-1.3z"/><path d="m416.8 733.8-1.2.6v.1l.6 1.2h.1l1.1-.6v-.1c-.2-.4-.4-.8-.6-1.2z"/><path d="m373.6 568.2 1.3-.2v-.1c-.1-.4-.2-.9-.2-1.3v-.1l-1.3.2v.2c.1.5.1.9.2 1.3z"/><path d="m413.2 729.5c.2.5.4.9.5 1.3h.1l1.1-.5v-.1c-.2-.4-.4-.8-.6-1.2z"/><path d="m415.2 404.5-.4-1.2c-.4.1-.8.2-1.2.4h-.1v.1l.4 1.2h.1c.4-.2.8-.3 1.2-.5z"/><path d="m372.6 562.9 1.3-.2v-.1c-.1-.4-.1-.8-.2-1.2h-.1l-1.2.2v.1.1c.1.3.2.7.2 1.1z"/><path d="m367.4 470c0 .5-.1.9-.2 1.3l1.3.2c0-.5.1-.9.2-1.3z"/><path d="m368.6 536.2 1.3-.1.1-.1c-.1-.4-.1-.8-.2-1.2v-.1l-1.3.2h-.1c.1.4.1.8.2 1.2z"/><path d="m367.9 530.5v.4h.1l1.2-.1h.1c-.1-.5-.1-.9-.2-1.3l-1.3.1c0 .2.1.5.1.9z"/><path d="m367.4 525.5 1.2-.1v-.1c0-.5-.1-.9-.1-1.3h-.1l-1.2.1v.1c.1.3.1.8.2 1.3z"/><path d="m370.8 552.3 1.3-.2v-.1c-.1-.5-.1-.9-.2-1.3h-.1l-1.2.2v.1l.1.5c.1.2.1.5.1.8z"/><path d="m425.6 402.2-.2-1.3c-.5.1-.9.1-1.3.2v.1l.2 1.2c.4 0 .8-.1 1.3-.2z"/><path d="m366.9 520 1.3-.1c0-.5-.1-.9-.1-1.3h-.1l-1.2.1c0 .4 0 .8.1 1.3z"/><path d="m371.7 557.6 1.3-.2v-.1c0-.3-.1-.6-.2-.9l-.1-.4-1.3.2c.2.5.2.9.3 1.4z"/><path d="m486.2 170.3-1.2.4v.1c.2.4.3.9.5 1.3h.1l1.2-.5c-.3-.4-.4-.8-.6-1.3z"/><path d="m366.3 480.8v.6.7l1.3.1c0-.5.1-.9.1-1.3z"/><path d="m366 486.2v1.3l1.3.1c0-.5 0-.9 0-1.4z"/><path d="m366.8 475.4v.4c0 .3 0 .6-.1.9l1.2.1c0-.5.1-.9.1-1.3z"/><path d="m366.2 509.2h1.3v-.1c0-.4 0-.8-.1-1.3l-1.3.1v.8c0 .2.1.3.1.5z"/><path d="m366.5 514.7 1.3-.1c0-.5-.1-.9-.1-1.3l-.1-.1-1.2.1v.1z"/><path d="m366 503.8h1.4v-1.5h-1.3v.9z"/><path d="m365.9 491.6v1.1.3l1.3.1c0-.3 0-.7 0-1v-.4z"/><path d="m369.3 541.6 1.2-.2v-.3c0-.4-.1-.7-.1-1.1h-.1l-1.2.2c0 .5.1.9.2 1.4z"/><path d="m487 117.8-1.2-.4h-.1c-.1.4-.3.9-.4 1.3l1.2.4h.1c.1-.3.2-.7.3-1z"/><path d="m484.2 731.5c.3-.3.7-.6 1-.9l-.9-1h-.1l-.1.1c-.3.3-.6.6-.9.9v.1z"/><path d="m483.9 409.3.4-1.2v-.1c-.4-.1-.9-.2-1.3-.3h-.1l-.3 1.2.4.2c.2 0 .6.1.9.2z"/><path d="m482.3 161.7 1.2-.3c-.1-.4-.2-.9-.3-1.3h-.1l-1.2.2v.1c.1.3.2.8.4 1.3z"/><path d="m473.5 406.6.3-1.3v-.1c-.4-.1-.7-.2-1.1-.3l-.2-.1h-.1l-.3 1.2v.1c.4.1.7.2 1.1.3z"/><path d="m472.3 740.5c-.4.3-.7.6-1 .9v.1l.8 1c.3-.3.7-.6 1-.9z"/><path d="m477.3 407.6.6.1c.2.1.5.1.8.2h.1l.3-1.2v-.1l-1.3-.4z"/><path d="m476.3 736.9c-.3.3-.6.6-1 .9v.1l.9 1c.3-.3.7-.6 1-.9z"/><path d="m481.3 156.3 1.2-.2c-.1-.5-.1-.9-.2-1.3h-.1l-1.3.1v.1c.3.4.3.9.4 1.3z"/><path d="m483.2 165.5c.1.5.2 1 .3 1.4l1.2-.4v-.1c-.1-.4-.2-.8-.4-1.3h-.1z"/><path d="m499.3 467c-.1.4-.2.9-.4 1.3l1.2.4c.1-.4.2-.9.3-1.3z"/><path d="m485 124.3c.1-.4.2-.9.3-1.3l-1.2-.4h-.1c-.1.5-.2.9-.3 1.3z"/><path d="m480.3 733.2c-.3.3-.6.6-.9.8l-.1.1v.1l.8.9h.1c.2-.2.3-.3.5-.5s.3-.3.5-.5z"/><path d="m481.7 133.2c-.1.4-.1.8-.2 1.3l1.3.2c.1-.4.1-.9.2-1.3v-.1z"/><path d="m480.7 144v1.4.1h1.3c0-.4 0-.8 0-1.3z"/><path d="m481 138.6c0 .5-.1.9-.1 1.4v.1l1.3.1h.1c0-.4.1-.8.1-1.3v-.1z"/><path d="m480.7 149.4v1.4l1.3-.1c0-.4 0-.9-.1-1.3z"/><path d="m455 753c-.4.2-.8.4-1.2.6l.6 1.2c.4-.2.8-.4 1.2-.6z"/><path d="m440.3 399.9v1.3h1.3l.1-.1v-1.2h-.1c-.4 0-.8 0-1.3 0z"/><path d="m443.7 756.4v1.3c.5 0 .9-.1 1.4-.1v-.1l-.1-1.3c-.5.1-.9.1-1.3.2z"/><path d="m438.2 757.1c.5.2.9.3 1.4.4l.3-1.3c-.4-.1-.8-.2-1.3-.3z"/><path d="m447 401.6.2-1.3-.1-.1c-.5 0-.9-.1-1.3-.1l-.1 1.3c.4.1.9.2 1.3.2z"/><path d="m450.1 755.1c-.5.2-.9.3-1.3.4l.4 1.3c.4-.1.8-.2 1.3-.4z"/><path d="m431 401.6-.1-1.4h-.1c-.4 0-.9.1-1.4.1l.1 1.3h.1c.5.1.9 0 1.4 0z"/><path d="m433.7 753.9-.7 1.1c.4.2.8.4 1.2.6l.6-1.2c-.3-.1-.7-.3-1.1-.5z"/><path d="m436.3 401.3v-1.3c-.5 0-.9 0-1.4 0v.1l.1 1.2h.1z"/><path d="m468.2 405.2.3-1.2v-.1l-.2-.1c-.4-.1-.7-.2-1.1-.3h-.1l-.3 1.2v.1c.5.2 1 .3 1.4.4z"/><path d="m463.7 749.1c.4-.3.8-.6 1.1-.8l-.8-1c-.4.3-.7.5-1.1.8v.1z"/><path d="m468 745.8.2-.2c.3-.2.6-.5.9-.7v-.1l-.8-1c-.4.3-.7.6-1.1.8z"/><path d="m451 402c.5.1.9.1 1.4.2l.2-1.2v-.1c-.5-.1-.9-.1-1.4-.2z"/><path d="m463 404.1.3-1.3v-.1c-.5-.1-.9-.2-1.3-.3l-.3 1.3h.1c.3.2.7.3 1.2.4z"/><path d="m459.6 750.3c-.5.3-.8.5-1.2.7l.7 1.1h.1c.4-.2.8-.5 1.2-.7v-.1z"/><path d="m429.4 750.8-.8 1v.1c.4.3.7.6 1.1.9h.1l.8-1v-.1c-.5-.2-.8-.5-1.2-.9z"/><path d="m457.6 403 .3-1.3v-.1c-.5-.1-.9-.1-1.3-.2l-.2 1.3c.4.2.8.3 1.2.3z"/><path d="m412.3 724-1.2.5c.2.5.3.9.5 1.2l1.2-.5c-.1-.3-.3-.6-.4-1z"/><path d="m566.7 695.2c.4-.1.9-.2 1.3-.2l-.2-1.3h-.1l-1.3.2v.1z"/><path d="m568.7 422 .1-1.2v-.1c-.4 0-.8 0-1.2-.1h-.2l-.1 1.3z"/><path d="m571.2 272.6c-.1-.4-.3-.9-.4-1.3h-.1l-1.2.4.1.3c.1.4.2.7.3 1.1h.1z"/><path d="m568.6 29.1c-.4.1-.8.2-1.3.3v.1l.3 1.2h.1c.4-.1.8-.2 1.3-.3z"/><path d="m567.1 261.1-1.2.5v.1c.2.4.3.8.5 1.2h.1l1.2-.5v-.1c-.2-.3-.4-.7-.6-1.2z"/><path d="m572.7 422.2.3.1h1.1.1v-1.3h-.1c-.4 0-.9 0-1.3 0z"/><path d="m574.1 281.7-1.3.3v.1c.1.4.2.8.4 1.2h.1l1.2-.4v-.1c-.2-.3-.3-.7-.4-1.1z"/><path d="m574.7 288.5 1.3-.3v-.1c-.1-.4-.3-.9-.4-1.3h-.1l-1.2.4c.2.5.3.9.4 1.3z"/><path d="m563.8 256.7c.2.4.4.8.5 1.2h.1l1.1-.5c-.2-.5-.4-.9-.6-1.2z"/><path d="m563.3 30.6c-.4.1-.8.3-1.3.5v.1l.4 1.2h.1c.4-.2.8-.3 1.3-.4v-.1z"/><path d="m568.8 381.6c-.2.3-.5.7-.7 1l-.1.1 1 .8h.1c.3-.4.5-.7.8-1.1z"/><path d="m563.3 421.8.1-1.3v-.1c-.5 0-.9 0-1.4-.1l-.1 1.4c.5.1.9.1 1.4.1z"/><path d="m560.5 629.8c.4-.2.8-.5 1.1-.8l-.7-1.1c-.4.2-.8.5-1.1.7z"/><path d="m561.5 696.3c.4-.1.9-.2 1.3-.3v-.1l-.3-1.3c-.4.1-.9.2-1.3.3v.1z"/><path d="m574 28.1c-.4 0-.9.1-1.4.2v.1l.2 1.3c.5-.1.9-.1 1.3-.2h.1z"/><path d="m569 266.2-1.2.4c.1.4.3.8.5 1.3l1.2-.4c-.1-.4-.3-.8-.5-1.3z"/><path d="m561.4 251.9c.2.4.4.8.6 1.2v.1l1.2-.6c-.2-.4-.4-.8-.6-1.2h-.1z"/><path d="m582.8 308.6c-.2-.4-.3-.8-.5-1.3l-1.2.4v.1c.1.2.1.4.2.6s.2.5.2.7z"/><path d="m581 365.4c.2-.4.5-.8.7-1.2l-1.1-.6h-.1c-.2.4-.5.8-.7 1.2z"/><path d="m559.5 248.5 1.1-.7v-.1c-.3-.4-.5-.8-.7-1.2l-1.1.7v.1c.2.3.4.7.7 1.2z"/><path d="m590.2 333.2-1.3.1v.1c.1.4.1.9.1 1.3v.1l1.2-.1c.1-.5.1-1 0-1.5z"/><path d="m572.5 276.5-1.2.4v.1c.1.4.3.9.4 1.3h.1l1.2-.4c-.3-.5-.4-1-.5-1.4z"/><path d="m589.7 345.5c.1-.4.2-.9.2-1.4v-.1l-1.3-.2c-.1.4-.2.9-.2 1.3z"/><path d="m590.3 28.4c-.5-.1-.9-.1-1.3-.2l-.1.1-.2 1.2c.4.1.8.1 1.3.2z"/><path d="m577.4 693.4c.5-.1.9-.1 1.3-.2v-.1l-.2-1.2h-.1l-.5.1c-.3 0-.5.1-.8.1z"/><path d="m589.5 329.2c-.1-.5-.2-.9-.3-1.3l-1.3.3c.1.5.2.9.3 1.3h.1z"/><path d="m578.8 618.5c.4-.2.8-.4 1.2-.5v-.1l-.5-1.2c-.4.2-.8.3-1.2.5z"/><path d="m576.3 293.7 1.2-.4c-.1-.4-.3-.9-.4-1.3h-.1l-1.2.4v.1.1c.3.3.4.7.5 1.1z"/><path d="m578.2 370.1c.2-.3.4-.6.6-1l.1-.2-1.1-.7h-.1c-.2.4-.5.7-.7 1.1l-.1.1z"/><path d="m572.1 379.1c.3-.4.6-.8.9-1.1l-1.1-.8-.3.5c-.2.2-.3.5-.5.7v.1z"/><path d="m579.8 304 1.2-.4v-.1c-.1-.4-.3-.8-.4-1.3h-.1l-1.2.4c.1.5.3.9.5 1.4z"/><path d="m575.3 374.6c.2-.4.5-.8.8-1.1l-1.1-.8h-.1c-.2.4-.5.8-.7 1.1z"/><path d="m577.5 297.5c.1.3.2.6.3.8l.1.5h.1l1.2-.4v-.1c-.1-.4-.3-.8-.4-1.3z"/><path d="m578.1 421v1.3h1.4v-1.4c-.5.1-1 .1-1.4.1z"/><path d="m579.4 27.8c-.4 0-.9 0-1.4 0l.1 1.2v.1c.5 0 1 0 1.3-.1z"/><path d="m500.9 461.8c-.1.4-.3.9-.4 1.3l1.3.4.1-.2c.1-.4.2-.7.4-1.1z"/><path d="m591.9 289.3 1-.8v-.1c-.2-.3-.5-.6-.8-1h-.1l-1 .8v.1c.3.3.6.6.9 1z"/><path d="m588.3 237.7 1.2.6h.1c.2-.4.4-.8.6-1.2v-.1l-1.1-.5h-.1c-.3.4-.5.8-.7 1.2z"/><path d="m595.5 418.9-.5-1.2c-.4.2-.8.3-1.2.5l.5 1.2c.4 0 .8-.2 1.2-.5z"/><path d="m592 233.4c.2-.3.4-.7.7-1.1v-.1l-1.1-.6c-.2.4-.4.7-.6 1.1v.1z"/><path d="m573.2 692.7c-.5.1-.9.2-1.3.2l-.1.1.2 1.2h.1c.3 0 .6-.1.9-.2l.5-.1h.1z"/><path d="m584.5 614.7c-.4.1-.8.3-1.2.4l-.1.1v.1l.5 1.2h.1c.4-.2.8-.3 1.2-.5z"/><path d="m595.4 30.7.3-1.3c-.4-.1-.9-.2-1.3-.3l-.3 1.3v.1c.4 0 .8.1 1.3.2z"/><path d="m574.6 619.1c-.5.2-.9.4-1.3.7v.1l.6 1.1h.1c.3-.2.7-.4 1.2-.7z"/><path d="m595.1 612.1-.4-1.2c-.4.1-.7.2-1.1.4l-.2.1v.1l.4 1.2h.1c.3-.3.7-.4 1.2-.6z"/><path d="m558.4 395.8c.1-.2.2-.2.3-.3.2-.2.4-.4.7-.7l-.9-1h-.1c-.2.2-.4.5-.7.7-.1.1-.1.1-.2.2l-.1.1z"/><path d="m0 309.5h.1z"/><path d="m593.7 228.2 1.1.7c.2-.4.5-.8.7-1.1l-1.1-.8c-.3.4-.5.8-.7 1.2z"/><path d="m593.2 689.7.1 1.3c.2 0 .5 0 .7-.1.2 0 .5-.1.7-.1l-.2-1.3c-.4.1-.8.2-1.3.2z"/><path d="m597.5 222.5c-.3.4-.6.7-.8 1.1l1.1.8h.1c.3-.4.6-.8.8-1.1v-.1z"/><path d="m569.9 621.9c-.4.2-.7.4-1 .6l-.2.1v.1l.7 1.1h.1c.3-.2.5-.3.8-.5l.3-.2v-.1z"/><path d="m555.9 242.7c.3.4.5.8.8 1.1h.1l1-.7v-.1c-.2-.4-.5-.8-.8-1.1h-.1z"/><path d="m554.4 399.5c.3-.3.7-.6 1-.9l-.9-1h-.1c-.3.3-.7.6-1 .9z"/><path d="m555.9 632.7c.4-.2.8-.5 1.2-.7l-.7-1.1c-.4.2-.8.5-1.1.7z"/><path d="m553.6 239.5 1-.8c-.3-.3-.5-.7-.8-1.1l-1 .8v.1c.2.3.5.7.8 1z"/><path d="m553 37.1c.4-.2.8-.5 1.1-.7v-.1l-.7-1.1c-.3.2-.7.4-1.2.7v.1z"/><path d="m558 420.3c-.2 0-.4 0-.6 0-.1 0-.3 0-.4 0h-.4v1.2.1h1.3z"/><path d="m557.7 34.5c.4-.2.7-.4 1.2-.6l-.6-1.2c-.4.2-.8.4-1.2.6z"/><path d="m556.2 697.4c.4-.1.9-.2 1.3-.3h.1l-.3-1.3c-.4.1-.7.2-1.1.2h-.2v.1z"/><path d="m550.1 402.9c.4-.3.8-.6 1.1-.8l-.8-1.1c-.3.2-.6.5-1.1.8z"/><path d="m552.4 634.6-.6-1.1h-.1c-.4.2-.8.4-1.2.6v.1l.6 1.2c.4-.3.8-.5 1.3-.8z"/><path d="m550.6 697.3.3 1.3h.1c.3-.1.7-.2 1-.2l.3-.1-.3-1.3h-.1c-.4.1-.9.2-1.3.3z"/><path d="m565.4 624.9c-.2.1-.4.3-.6.4s-.4.2-.5.4l.8 1.1c.2-.1.4-.3.6-.4l.5-.3v-.1z"/><path d="m550.2 235.4 1-.9c-.3-.3-.6-.7-.9-1h-.1l-1 .9c.4.3.7.6 1 1z"/><path d="m552.6 421.7-.1-1.2-.1-.1c-.4 0-.8.1-1.4.1v.1l.1 1.2h.1c.5 0 .9 0 1.4-.1z"/><path d="m564.6 388.9 2.2-2.2-.9-.9-2.2 2.2-2.2-2.2-.8.9 2.2 2.2-2.2 2.2.8.8 2.2-2.2 2.2 2.2.9-.8z"/><path d="m548.9 38.2c-.4.3-.8.5-1.2.8l.7 1 .1.1c.4-.3.8-.5 1.1-.8v-.1z"/><path d="m596.5 292.4c-.4-.4-.7-.7-1-1l-1 .9c.3.3.6.6 1 1h.1z"/><path d="m521.1 706.9c-.5.2-.9.4-1.3.5v.1l.5 1.1h.1c.4-.2.8-.4 1.2-.5z"/><path d="m532.6 52.3-.8-.9h-.1c-.3.3-.7.6-1 .9l.9 1c.3-.3.7-.6 1-1z"/><path d="m532.1 412.3-.4-1.2h-.1c-.4.1-.9.3-1.3.4v.1l.3 1.3c.6-.3 1-.5 1.5-.6z"/><path d="m487.6 177.1 1.2-.6c-.2-.5-.4-.8-.6-1.2l-1.2.5v.1c.2.3.4.7.6 1.2z"/><path d="m494.9 522.1c0-.5 0-1 0-1.4h-.1-1.2v.5.9z"/><path d="m531.8 426.3-.5-1.2c-.1 0-.2.1-.4.1-.3.1-.5.2-.9.4v.1l.5 1.2c.3-.1.6-.2.9-.4.1 0 .1 0 .2-.1 0 0 .1-.1.2-.1z"/><path d="m534.1 219-.8 1.1c.4.3.7.5 1.1.8l.8-1.1c-.3-.3-.7-.5-1.1-.8z"/><path d="m495.1 527.5c0-.3 0-.6 0-.8s0-.4 0-.6h-1.3v.1.4.9z"/><path d="m518.8 624.1-1.1.8c.3.3.6.7.8 1.1h.1l1-.8c-.2-.3-.5-.7-.8-1.1z"/><path d="m536.8 424.4-.4-1.2c-.4.1-.9.3-1.3.4l.4 1.2h.1c.4 0 .8-.2 1.2-.4z"/><path d="m535.4 703.1c.4-.1.8-.3 1.2-.4l.1-.1-.4-1.2c-.4.1-.8.2-1.2.4h-.1v.1z"/><path d="m536.4 638.2.3-1.3c-.4-.1-.8-.2-1.1-.2h-.1l-.4 1.2v.1h.1c.4.1.8.2 1.2.2z"/><path d="m535.6 49.8c.4-.3.7-.6 1-.9l-.9-1c-.4.3-.7.6-1 .9z"/><path d="m537.2 410.4-.5-1.2h-.1c-.4.1-.8.3-1.2.5l.5 1.2h.1c.3-.1.7-.2 1.2-.5z"/><path d="m531.7 635.3c-.4-.2-.8-.4-1.2-.6l-.6 1.2v.1l1.2.6z"/><path d="m530.9 216.7c-.4-.3-.8-.5-1.2-.8l-.7 1.1v.1c.4.2.7.5 1.1.8z"/><path d="m530.7 704.7c.3-.1.6-.2.9-.3v-.1l-.4-1.2c-.4.1-.8.3-1.3.5v.1l.4 1.2z"/><path d="m588 283.6c.2.4.5.8.7 1.2v.1l1.1-.7v-.1c-.2-.4-.5-.7-.7-1.1z"/><path d="m503.6 458.3c.2-.4.3-.8.5-1.2v-.1l-1.2-.5h-.1c-.2.4-.3.8-.5 1.3z"/><path d="m505 451.7c-.2.4-.4.9-.6 1.2l1.2.6c.2-.5.4-.8.6-1.2z"/><path d="m503.9 412.3-.2 1.3c.5.1.9.1 1.3.2l.2-1.3c-.4 0-.8-.1-1.3-.2z"/><path d="m488.3 114c.2-.4.3-.8.5-1.2l-1.2-.5v.1c-.2.4-.3.9-.5 1.3z"/><path d="m509.5 76.9c.3-.3.6-.7.8-1v-.1l-1-.8h-.1l-.8 1.1v.1z"/><path d="m502.9 83.7c-.3.4-.5.7-.8 1.1l1 .7h.1c.2-.4.5-.7.8-1.1z"/><path d="m502.1 584.8-1.2.3v.1c.1.4.2.9.3 1.3h.1l1.3-.3v-.1c-.3-.4-.4-.8-.5-1.3z"/><path d="m502.8 197.8c.3.4.6.7 1 1l.9-.9v-.1c-.3-.3-.6-.6-1-.9z"/><path d="m506.1 79.3c-.3.4-.6.8-.8 1.1v.1l1 .8c.3-.4.5-.7.8-1.1v-.1z"/><path d="m488.1 409-.4 1.3c.4.1.7.2 1.1.3l.2.1.4-1.2z"/><path d="m490.3 109c.2-.4.4-.8.6-1.2v-.1l-1.1-.5h-.1c-.2.4-.4.8-.5 1.2v.1z"/><path d="m507.6 200.5-.8 1 .1.2c.3.3.6.5.9.8h.1l.8-1v-.1c-.4-.4-.7-.6-1.1-.9z"/><path d="m488.2 727.8c.2-.2.5-.4.7-.6l.3-.3-.8-1h-.1c-.3.3-.7.6-1 .9z"/><path d="m490.2 181.9 1.2-.7c-.2-.3-.4-.7-.7-1.2h-.1l-1.1.6v.1c.2.4.5.8.7 1.2z"/><path d="m497.5 94.7c.3-.4.5-.8.8-1.2l-1.1-.7h-.1l-.2.4c-.2.3-.3.5-.5.8z"/><path d="m492.5 104.2c.2-.4.4-.8.6-1.2v-.1l-1.2-.6v.1c-.2.4-.4.7-.6 1.2z"/><path d="m511.2 711.4-.3.1c-.3.2-.7.3-1 .5l.6 1.2.5-.2c.2-.1.5-.3.8-.4z"/><path d="m583.2 253.2 1.3.2c.1-.4.2-.9.3-1.3v-.1l-1.3-.3h-.1c0 .6-.1 1-.2 1.5z"/><path d="m547.4 636.9-.5-1.2h-.1c-.5.2-.9.3-1.2.4v.1l.4 1.2c.5-.2.9-.3 1.4-.5z"/><path d="m583.5 27.8-.1 1.4c.5 0 .9 0 1.3.1l.1-1.3v-.1c-.4-.1-.9-.1-1.3-.1z"/><path d="m582.4 262.6v1.4h1.3v-.1c0-.4 0-.8 0-1.3z"/><path d="m582.7 257.2c-.1.5-.1.9-.1 1.4l1.3.1h.1c0-.4.1-.8.1-1.3v-.1z"/><path d="m582.7 692.5c.2 0 .4-.1.6-.1s.5-.1.7-.1v-.1l-.2-1.3h-.2c-.4.1-.8.1-1.2.2v.1z"/><path d="m587 324.3 1.2-.4c-.1-.4-.2-.8-.4-1.3h-.1l-1.2.4c.1.4.3.9.5 1.3z"/><path d="m586.2 355.9c.2-.5.4-.9.6-1.3v-.1l-1.1-.5h-.1c-.2.4-.4.8-.5 1.2v.1z"/><path d="m583.2 313.6.2.5h.1l1.2-.5c-.2-.4-.3-.8-.5-1.3v-.1l-1.3.5c.1.4.2.6.3.9z"/><path d="m582.8 268c0 .5.1 1 .1 1.4v.1l1.3-.2h.1c-.1-.4-.1-.9-.2-1.3v-.1z"/><path d="m585.6 278.7c.2.4.4.9.6 1.3h.1l1.1-.5v-.1c-.2-.4-.4-.8-.5-1.2h-.1z"/><path d="m586.7 241.4c-.2.5-.3.9-.5 1.3v.1l1.3.5c.2-.5.3-.9.5-1.2v-.1z"/><path d="m585.1 273.1-1.3.3v.1c.1.5.2.9.4 1.3l1.2-.4c-.1-.4-.2-.8-.3-1.3z"/><path d="m583.6 422c.5 0 1-.1 1.4-.2l-.2-1.3h-.1c-.4.1-.9.1-1.3.2z"/><path d="m588.2 350.9c.2-.5.3-.9.4-1.3v-.1l-1.2-.4h-.1c-.1.4-.3.8-.4 1.3v.1z"/><path d="m585.3 319.2 1.2-.4v-.1c-.1-.4-.3-.9-.5-1.3h-.1l-1.2.4c.2.5.4 1 .6 1.4z"/><path d="m583.7 360.8c.2-.4.5-.8.7-1.2l-1.2-.6v.1c-.2.4-.4.8-.6 1.2z"/><path d="m584.9 246.5c-.1.4-.3.9-.4 1.3l1.2.4h.1c.1-.4.2-.9.4-1.3z"/><path d="m544.1 43.1c.4-.2.8-.5 1.2-.8l-.8-1.1c-.4.2-.7.5-1.1.8z"/><path d="m540.6 423.4c.5-.1.9-.2 1.3-.3h.1l-.3-1.3h-.1c-.5.1-.9.2-1.3.3z"/><path d="m542.2 408-.6-1.1c-.4.2-.8.4-1.2.6l.6 1.1h.1c.2-.1.6-.3 1.1-.6z"/><path d="m542 638.3-.2-1.3c-.4.1-.9.1-1.3.1l.1 1.3c.4 0 .9 0 1.4-.1z"/><path d="m540.5 701.5c.4-.1.8-.2 1.2-.4h.1l-.4-1.3c-.3.1-.6.2-1 .3l-.3.1v.1z"/><path d="m545.7 406c.4-.2.8-.5 1.1-.7v-.1l-.7-1.1c-.4.3-.8.5-1.1.7v.1z"/><path d="m545.7 700c.4-.1.9-.2 1.3-.3l-.3-1.3c-.4.1-.9.2-1.3.4v.1z"/><path d="m545.6 421.1.2 1.3h.1c.5-.1.9-.1 1.3-.2v-.1l-.2-1.2c-.4 0-.9.1-1.4.2z"/><path d="m538.4 222.3-.8 1v.1c.3.2.7.5 1 .9l.8-1v-.1c-.2-.3-.6-.6-1-.9z"/><path d="m590.4 420.8-.3-1.3c-.5.1-.9.2-1.3.3l.3 1.3h.1c.3-.1.7-.2 1.2-.3z"/><path d="m590.5 338.7-1.3-.1v.1 1.3l1.3.1h.1c-.1-.4-.1-.9-.1-1.4z"/><path d="m588 691.8c.4-.1.9-.1 1.3-.2l-.2-1.2h-.1l-1.3.2v.1z"/><path d="m590 613.9-.5-1.2-.2.1c-.4.1-.8.3-1.1.4v.1l.5 1.2h.1c.4-.3.8-.4 1.2-.6z"/><path d="m539.8 46.4c.3-.3.7-.5 1.1-.8l-.8-1h-.1c-.3.3-.7.6-1.1.8v.1z"/><path d="m542.6 225.8-.9.9v.1c.3.3.6.6 1 .9h.1l.8-.9c-.4-.4-.7-.7-1-1z"/><path d="m546.6 229.5-1 .9v.1c.3.3.7.6 1 .9l.9-.9c-.3-.3-.6-.6-.9-1z"/><path d="m194.5 766.9c0-.5 0-.9.1-1.4l-1.3-.1h-.1c0 .4 0 .9-.1 1.3z"/><path d="m63 466.1c0-.4.1-.7.1-1.1v-.2-.1l-1.2-.2c-.1.5-.1.9-.2 1.3v.1z"/><path d="m61.9 583.1c.1.5.2.9.4 1.3h.1l1.2-.3c-.1-.4-.2-.9-.4-1.3z"/><path d="m61.8 482.2c0-.5 0-.9.1-1.3l-1.3-.1-.1.2c0 .4-.1.8-.1 1.2z"/><path d="m62.2 475.5-1.4-.2v1.5l1.3.1z"/><path d="m62.4 471.4c0-.4.1-.8.1-1.3l-1.4-.1c-.1.5-.1.9-.1 1.4z"/><path d="m60.5 370.7-1 1 .9.9 1-.9c-.2-.3-.5-.6-.9-1z"/><path d="m58.2 513.1v.8l-.1.7 1.3.1c0-.5.1-.9.1-1.3z"/><path d="m59 502.3-.1 1.3 1.3.2v-.2c0-.4.1-.8.1-1.2z"/><path d="m58.6 507.7c0 .2 0 .5-.1.8v.6l1.3.2c0-.4.1-.9.1-1.3z"/><path d="m63.7 453.9-.1.5c0 .3-.1.6-.2.9l1.3.2h.1c.1-.4.2-.9.2-1.3z"/><path d="m63.1 375.7c.3.4.5.7.8 1.1l1.1-.8c-.2-.4-.5-.7-.8-1.1h-.1z"/><path d="m64.1 271.9.5 1.2 1.2-.5h.1l-.3-.7v.1l-.3-.6z"/><path d="m61.4 487.6c0-.2 0-.4 0-.7 0-.2 0-.4 0-.7l-1.3-.1v.6.7z"/><path d="m67.9 439.6c.1-.3.2-.5.2-.7s.1-.4.1-.7l-1.3-.3-.3 1.4z"/><path d="m59.4 496.9-.1 1.4 1.3.1.1-1.4z"/><path d="m61 493c0-.4.1-.9.1-1.3v-.1l-1.3-.1v.7c0 .2 0 .5-.1.7v.1z"/><path d="m62.7 459.2c-.1.3-.1.7-.2 1l-.1.4v.1l1.2.2h.1c.1-.4.1-.8.2-1.2v-.2z"/><path d="m63.2 792.4.3-1.3v-.1l-.6-.1c-.2-.1-.5-.1-.7-.2l-.3 1.3z"/><path d="m61 579.2 1.2-.3v-.1c-.1-.4-.2-.9-.3-1.3v-.1l-1.3.3c.1.6.2 1 .4 1.5z"/><path d="m57.9 791.1.4-1.2v-.1l-1.3-.3h-.1l-.3 1.3.6.1c.1.1.4.2.7.2z"/><path d="m58.9 568.5 1.3-.1v-.1c-.1-.4-.1-.9-.2-1.3h-.1l-1.3.2v.1c.2.4.3.8.3 1.2z"/><path d="m58.2 563.2 1.3-.1v-.1c0-.4-.1-.9-.1-1.3l-1.3.1v.1c0 .3.1.8.1 1.3z"/><path d="m59.8 573.8 1.3-.2v-.1c-.1-.4-.1-.8-.2-1.2v-.1l-1.3.2v.1c.1.5.1.9.2 1.3z"/><path d="m58.4 546.9c0-.5 0-1 0-1.4h-1.2-.1v.1 1.2.1z"/><path d="m67.8 380.8c-.2-.4-.4-.8-.6-1.2l-1.1.6.6 1.2h.1z"/><path d="m63.8 589.6 1.3-.3v-.1c-.1-.5-.3-.9-.4-1.3h-.1l-1.2.4v.1l.1.3c.1.2.2.6.3.9z"/><path d="m107.3 650.5.8-1v-.1c-.3-.3-.7-.6-1.1-.8l-.9 1z"/><path d="m57.6 523.9c-.1.3-.1.5-.1.7v.7l1.3.1.1-.1c0-.4 0-.9.1-1.3z"/><path d="m59.1 519.9c0-.2 0-.5 0-.7s0-.4 0-.7l-.1-.1-1.2-.1h-.1l-.1 1.3z"/><path d="m57.3 529.3c0 .5 0 .9-.1 1.4h1.3c0-.4 0-.8 0-1.1v-.2z"/><path d="m58.3 541.5.1-1.4-1.3-.1v.7.7z"/><path d="m57.7 557.8 1.3-.1v-.1c0-.5-.1-.9-.1-1.3v-.1l-1.3.1v.1c0 .4 0 .9.1 1.4z"/><path d="m57.3 552.3h1.3l.1-.1c0-.4 0-.7-.1-1.1v-.3l-1.3.1z"/><path d="m57.1 534.7v.5.8.1h1.3c0-.5 0-.9 0-1.3z"/><path d="m75.2 57.5-.8 1 .4-.5-.4.6 1.1.8.8-1.1z"/><path d="m95.7 259.7-.6-1.2-1.2.6.6 1.2 1.2-.6-.3-.7z"/><path d="m84.3 65.7.8-1.1-1.1-.8-.8 1.1.4-.5-.4.5z"/><path d="m95.8 639c-.3-.3-.6-.6-1-.9l-.9.9v.1c.3.3.6.6 1 .9z"/><path d="m94.5 800h.1.1l.3-1.2v-.1l-1.4-.3-.3 1.3c.4.2.8.3 1.2.3z"/><path d="m83 795.9-.3 1.3h.1c.2 0 .4.1.6.2s.5.1.7.2h.1l.3-1.2v-.1c-.2 0-.4-.1-.7-.2s-.5-.1-.8-.2z"/><path d="m87.6 68.1 1.1.8.8-1.1-1.1-.8-.4.5.3-.5zm.5-.7-.1.2.1-.1z"/><path d="m88.7 266.6.9-.8-2.3-2.2 2.2-2.2-.8-.9-2.2 2.2-2.2-2.2-.9.9 2.2 2.2-2.2 2.2.9.8 2.2-2.2z"/><path d="m85.1 626.9c-.3-.4-.5-.7-.8-1.1h-.1l-1 .8v.1c.3.4.5.7.8 1.1z"/><path d="m109.8 251.5-.8-1.1.4.6-.4-.6c-.4.3-.7.5-1.1.8l.8 1.1c.4-.3.8-.6 1.1-.8z"/><path d="m109.4 84.2c.4.2.8.5 1.2.7l.7-1.2c-.4-.2-.8-.5-1.2-.7z"/><path d="m87.5 632 1-.8v-.1c-.3-.3-.6-.7-.9-1l-1 .8c.3.4.6.7.9 1.1z"/><path d="m110.4 803.5.3-1.3h-.1c-.4-.1-.9-.2-1.3-.3l-.3 1.3c.6.1 1 .2 1.4.3z"/><path d="m66.7 53.2.7-1.1-1.1-.8-.2.3.2-.3-.1.2-.6.9z"/><path d="m93.8 71.1-1.1-.8-.3.4.3-.5-.8 1.1 1.1.8zm-1.5-.3.2-.2z"/><path d="m114.1 248.1-.2-.3.2.3-.9-1 .3.4-.3-.4c-.3.3-.7.6-1 .9l.9 1c.3-.3.7-.6 1-.9z"/><path d="m91.1 634.1-1 .9v.1c.3.3.6.7.9 1h.1l1-.9c-.4-.4-.7-.7-1-1.1z"/><path d="m111.6 653.8.8-1v-.1c-.3-.3-.7-.6-1.1-.8h-.1l-.8 1c.4.3.8.6 1.2.9z"/><path d="m56.7 369.1.9-1v-.1c-.4-.3-.7-.6-1.1-.9l-.8 1v.1c.3.3.6.6 1 .9z"/><path d="m59 273.9.6 1.2 1.2-.5h.1l-.4-.6-.2-.6z"/><path d="m57.7 47.2.7-1.1-1.1-.8-.8 1.2z"/><path d="m54 276 .6 1.2 1.2-.5h.1l-.4-.7v.1l-.2-.6z"/><path d="m62.2 50.2.7-1.2-1.1-.7-.1.2.1-.2v.1l-.7 1z"/><path d="m89.3 798.8.4-1.3c-.2-.1-.4-.1-.7-.2-.2-.1-.4-.1-.7-.2h-.1l-.3 1.2v.1c.6.2 1 .3 1.4.4z"/><path d="m61.4 48.8.4-.4v-.1z"/><path d="m65.7 594.8 1.2-.4v-.1c-.1-.4-.3-.8-.5-1.3h-.1l-1.2.4v.1c.2.4.3.8.6 1.3z"/><path d="m65.9 51.9.3-.4.1-.2z"/><path d="m79.9 62.5.8-1.1-1.1-.8-.8 1.1.4-.5-.4.5z"/><path d="m78.9 796.3.3-1.3h-.1c-.4-.1-.9-.2-1.3-.3l-.4 1.2v.1z"/><path d="m77.8 618.9 1.1-.7v-.1c-.2-.4-.5-.7-.7-1.1v-.1h-.1l-1.1.7c.3.5.6.9.8 1.3z"/><path d="m80.9 266.5v-.1l-.3-.6-.2-.6-1.3.6.5 1.2z"/><path d="m374.6 573.5 1.3-.2v-.1c-.1-.4-.2-.9-.3-1.3h-.1l-1.2.2v.1c.1.3.1.7.2 1z"/><path d="m75 614.3 1.2-.6c-.2-.4-.4-.8-.7-1.2h-.1l-1.1.6v.1c.2.3.4.7.7 1.1z"/><path d="m80.9 623.4 1.1-.7v-.1c-.3-.4-.5-.7-.8-1.1l-1.1.8c.2.4.5.8.8 1.1z"/><path d="m65.8 450.2c.1-.4.2-.9.3-1.3l-1.3-.3h-.1c-.1.4-.1.8-.2 1.1v.2z"/><path d="m20.9 783.5.2-1.3v-.1h-.3c-.3 0-.7-.1-1-.2h-.1l-.2 1.3.6.1c.3.2.5.2.8.2z"/><path d="m22.5 354.4.3-1.3v-.1c-.4-.1-.9-.2-1.3-.3l-.3 1.3v.1c.5.1.9.2 1.3.3z"/><path d="m22.2 293.9-.7-1.1.4.6-.4-.6c-.4.2-.8.5-1.1.8l.8 1.1c.3-.3.7-.5 1-.8z"/><path d="m20.2 25.8.5-1.2-1.2-.6-.6 1.2.4-.7-.4.7z"/><path d="m17 295.9c-.4.3-.7.5-1.1.8l.8 1.1c.4-.3.7-.5 1.1-.8l-.3-.5.3.4z"/><path d="m27.8 355.6.4-1.3c-.4-.1-.9-.2-1.3-.3l-.4 1.3c.4.1.8.2 1.3.3z"/><path d="m14.6 21.6-.2.5.2-.5-.6 1.3 1.2.6.6-1.2zm-.3.6.1-.1.1-.1z"/><path d="m16.1 351.8-.2 1.3v.1c.4.1.9.1 1.3.2h.1l.2-1.3c-.4-.2-.9-.3-1.4-.3z"/><path d="m24.9 290.6.7 1.1c.4-.2.8-.5 1.2-.7l-.7-1.2.3.6-.3-.6c-.4.3-.8.5-1.2.8z"/><path d="m43.1 360.8.5-1.1v-.1c-.4-.2-.9-.4-1.2-.5h-.1l-.5 1.2v.1c.3 0 .7.2 1.3.4z"/><path d="m44.6 37.5-1.2-.7-.7 1.1.4-.5-.3.5 1.1.7z"/><path d="m26.2 784.4.3-1.2c-.4-.1-.9-.1-1.3-.2l-.3 1.3z"/><path d="m42.1 787.5.3-1.3v-.1h-.1c-.4-.1-.8-.2-1.2-.3h-.1l-.3 1.3.1.1c.4.1.8.2 1.3.3z"/><path d="m14.4 781.3-.2 1.3 1.4.2.2-1.3v-.1l-.5-.1c-.3 0-.6 0-.9 0z"/><path d="m45.9 281-.5-1.2.2.6-.3-.6-1.2.6.6 1.2z"/><path d="m67.1 443.6-1.3-.3-.3 1.4 1.3.3v-.2c.2-.4.3-.8.3-1.2z"/><path d="m0 16.8.4.2.5-1.3-.6-.2-.3.6z"/><path d="m11.1 352.3c.3 0 .6.1.9.1l.3-1.3h-.1c-.4-.1-.9-.1-1.3-.2l-.2 1.3h.1z"/><path d="m41 283.3-.3-.6.3.6-.6-1.2-1.2.6.6 1.2z"/><path d="m600 689.1v-.2h-.1c-.2 0-.5.1-.7.1s-.5 0-.7.1l.1 1.2h.1c.4-.1.8-.1 1.3-.2z"/><path d="m6.6 351.7.2-1.3v-.1h-.3c-.4 0-.7-.1-1-.1l-.2 1.3h.2c.3.1.7.2 1.1.2z"/><path d="m1.3 351.1.1-1.3-.3-.1c-.4 0-.7-.1-1.1-.1v.2 1.1z"/><path d="m599.4 295.1-.9 1c.3.3.7.6 1 .9l.4-.4v-1c-.1-.2-.3-.4-.5-.5z"/><path d="m599.7 415.3c-.4.3-.8.5-1.1.7l.7 1.2c.3-.1.5-.3.8-.5v-.9z"/><path d="m599.9 609.2c-.5.1-.9.2-1.4.4l.4 1.3h.1c.4-.1.7-.2 1.1-.3v-.9z"/><path d="m5.9 17.8-1.3-.5-.2.6v.6-.6l-.3.6 1.3.5z"/><path d="m9.6 19.4-.2.6.2-.6-.2.6-.3.6 1.2.5.5-1.2zm-.2.6.1-.2z"/><path d="m10.2 782.1.2-1.3h-.1c-.4 0-.9-.1-1.4-.1l-.1 1.3c.5 0 .9.1 1.4.1z"/><path d="m4.4 17.2v.7z"/><path d="m8.2 304.4 1-.9-.2-.3.2.3-.8-1-1.1.8z"/><path d="m3.5 781.8h1.4v-1.3l-.1-.1c-.4 0-.8 0-1.4 0z"/><path d="m13.5 300.1-.8-1 .3.5-.4-.5-1 .8.8 1.1z"/><path d="m4.9 306.7.1.3-.8-1.1.3.4-.3-.4-1.1.9.9 1 1.1-.8z"/><path d="m24.4 26.4-.6 1.2 1.2.6.6-1.2-1.2-.6-.3.6z"/><path d="m68.9 427.5c-.1.4-.1.8-.2 1.2l1.3.3h.1c.1-.4.1-.8.2-1.2v-.2l-1.3-.3z"/><path d="m70.8 54.4v-.1l-.8 1.1.4-.5-.4.6 1.1.7.8-1.1z"/><path d="m71.2 391.2c-.1-.4-.2-.9-.3-1.3h-.1l-1.3.3v.1c.1.5.2.9.3 1.3h.1z"/><path d="m39.9 34.7-1.2-.6v-.1l-.7 1.2.4-.5-.3.5 1.2.7z"/><path d="m69.8 604.7 1.2-.5c-.2-.4-.4-.8-.6-1.2l-1.2.5v.1c.3.3.5.7.6 1.1z"/><path d="m71.6 418.2c0-.5.1-.9.1-1.3v-.1l-1.2-.1h-.1c0 .5-.1.9-.1 1.3z"/><path d="m69.6 271.1 1.3-.5-.3-.7v.1l-.3-.7-1.2.5z"/><path d="m71.8 395.2-1.3.1h-.1c.1.4.1.9.2 1.3v.1l1.3-.2c0-.4 0-.9-.1-1.3z"/><path d="m68.5 386.3 1.2-.3v-.1c-.1-.5-.3-.9-.4-1.3l-1.2.4v.1c.1.4.3.8.4 1.2z"/><path d="m67.4 792.1-.4 1.2v.1c.4.1.9.2 1.3.3h.1l.3-1.3c-.3-.1-.6-.1-.9-.2z"/><path d="m70.8 411.4c0 .5-.1.9-.1 1.3l1.3.1h.1c0-.5.1-.9.1-1.4v-.1z"/><path d="m68.9 599.2c-.2-.4-.4-.8-.5-1.2h-.1l-1.2.5c.2.4.3.8.5 1.2z"/><path d="m69 434.3.2-1.3-1.3-.3-.1.5c0 .3-.1.6-.2.8v.1z"/><path d="m72.3 609.6 1.2-.6v-.1c-.2-.4-.4-.8-.6-1.2l-1.2.6c.2.5.4.9.6 1.3z"/><path d="m72.4 407.4c0-.5 0-.9 0-1.4l-1.4-.1v1.3.1z"/><path d="m71 400.6v1.4h1.3c0-.4 0-.9-.1-1.4v-.1z"/><path d="m70.8 423.6c.1-.4.1-.9.2-1.3l-1.3-.2-.2 1.4z"/><path d="m31.5 785.4.3-1.3v-.1c-.4-.1-.8-.1-1.2-.2h-.1-.1l-.2 1.3c.4.1.9.2 1.3.3z"/><path d="m33 357.1.4-1.2v-.1c-.4-.1-.9-.3-1.3-.4l-.4 1.2v.1c.4.2.9.3 1.3.4z"/><path d="m35.2 32.1-1.2-.7-.7 1.2.4-.6-.3.6 1.1.7z"/><path d="m31.5 288.3-.3-.4.2.4-.6-1.1.3.5-.3-.6-1.2.7.7 1.2z"/><path d="m72.9 794.8c.2.1.5.1.7.2l.3-1.3c-.2-.1-.5-.1-.7-.2-.2 0-.4-.1-.6-.2l-.4 1.2v.1c.3.1.5.2.7.2z"/><path d="m29.8 30.7.6-1.2-1.2-.6v-.1l-.7 1.2.4-.5-.3.5z"/><path d="m36.8 786.4.3-1.3v-.1c-.4-.1-.9-.2-1.3-.3l-.3 1.3h.1c.3.2.8.3 1.2.4z"/><path d="m36.2 285.7-.6-1.2.3.6-.3-.6c-.4.2-.8.4-1.2.6l.6 1.2c.4-.1.8-.3 1.2-.6z"/><path d="m38.1 358.8.5-1.2v-.1c-.4-.2-.9-.3-1.3-.5l-.4 1.2v.1c.3.2.8.4 1.2.5z"/><path d="m51.6 788.3-.3 1.2v.1l1.4.3.3-1.3v-.1l-.5-.1c-.4 0-.6-.1-.9-.1z"/><path d="m52.2 42.7h1.4v1.4h-1.4z" transform="matrix(.5316 -.847 .847 .5316 -11.9277 65.1252)"/><path d="m49.3 40.3-1.2-.7-.7 1.1 1.1.7z"/><path d="m53.1 364.8c-.4-.3-.8-.5-1.1-.7l-.7 1.1c.4.3.8.5 1.1.7h.1z"/><path d="m46.3 787.1-.3 1.3c.3.1.6.1.8.2l.5.1h.1l.3-1.2v-.1c-.2 0-.4-.1-.6-.1-.3-.1-.5-.2-.8-.2z"/><path d="m48.5 362c-.4-.2-.8-.4-1.2-.6l-.6 1.2v.1c.4.2.8.4 1.2.6z"/><path d="m50.6 278.1-.3-.5-1.2.5.5 1.3 1.2-.6h.1z"/><path d="m74.1 267.8.5 1.3 1.3-.5v-.1l-.3-.6-.2-.6z"/><path d="m193.8 754.6-1.3.2v.1c.1.4.1.9.2 1.3l1.3-.2v-.1c0-.3-.1-.8-.2-1.3z"/><path d="m189.8 740.3c-.1-.4-.3-.8-.5-1.3l-1.3.5c.2.4.3.8.5 1.3z"/><path d="m182.1 796.6c.4-.4.7-.7 1-1l-.9-.9c-.3.3-.6.6-.9.9v.1z"/><path d="m192.7 749.3-1.3.3c.1.5.2.9.3 1.3h.1l1.3-.3c-.2-.4-.3-.8-.4-1.3z"/><path d="m194.5 761.5c0-.5 0-.9 0-1.4h-.1l-1.3.1c0 .5.1.9.1 1.3z"/><path d="m181.7 726.1 1.2-.6c-.2-.4-.4-.8-.6-1.2h-.1l-1.1.6c.2.5.4.9.6 1.2z"/><path d="m191.1 744.1-1.3.4v.1c.2.5.3.9.4 1.3h.1l1.2-.4v-.1c-.1-.4-.2-.8-.4-1.3z"/><path d="m193.9 772.3c.1-.5.1-1 .2-1.3l-1.3-.2c-.1.4-.1.9-.2 1.3z"/><path d="m191 782.9c.2-.4.3-.9.5-1.3l-1.3-.5c-.2.5-.3.9-.5 1.2v.1z"/><path d="m409.6 720.8 1.2-.4v-.1c-.2-.4-.3-.8-.5-1.3h-.1l-1.2.4v.1c.2.5.4.9.6 1.3z"/><path d="m191.8 776c-.2.5-.3.9-.4 1.3l1.3.4c.1-.4.2-.8.3-1.3z"/><path d="m410.2 406.3-.5-1.3c-.4.2-.8.3-1.3.5v.1l.5 1.1h.1c.3-.1.7-.2 1.2-.4z"/><path d="m188.6 787.9c.2-.4.4-.8.7-1.3v-.1l-1.1-.6h-.1c-.2.4-.4.8-.6 1.2v.1z"/><path d="m185.7 792.5c.3-.4.5-.7.8-1.1l-1.1-.8c-.3.4-.5.8-.8 1.1v.1z"/><path d="m187.7 735.2c-.2-.5-.4-.9-.6-1.2l-1.2.5c.2.4.4.8.6 1.2z"/><path d="m184.8 729.1-1.2.6v.1c.2.4.4.8.6 1.2h.1l1.1-.6v-.1c-.2-.4-.4-.8-.6-1.2z"/><path d="m172.4 115.5-1 .9c.3.3.6.7.8 1l1.1-.8c-.4-.4-.7-.7-.9-1.1z"/><path d="m407.7 715.7 1.3-.4c-.2-.4-.3-.8-.4-1.3l-1.2.4v.1l.1.4c0 .2.1.5.2.8z"/><path d="m174.4 710.9c-.1-.2-.2-.4-.4-.6h-.1l-1.1.7c.1.2.3.5.4.7l.3.5 1.1-.7z"/><path d="m174.2 152.2-1.3-.4.6.2-.6-.2c-.1.4-.3.9-.4 1.3l1.3.4c.1-.4.3-.9.4-1.3z"/><path d="m175.7 147-1.3-.3.7.1-.7-.2c-.1.4-.2.9-.4 1.3l1.3.4c.2-.5.3-.9.4-1.3z"/><path d="m173.2 803c.4-.2.8-.4 1.2-.7l-.7-1.2c-.4.2-.8.4-1.2.6v.1z"/><path d="m177.4 125.3-1.3.3.7-.1-.6.2c.1.4.2.8.3 1.3l1.3-.3c-.2-.5-.3-1-.4-1.4z"/><path d="m176.5 137.1-.1.4 1.3.2.1-.4c.1-.3.1-.7.1-1l-1.3-.2.7.1-.7-.1c0 .3-.1.6-.1 1z"/><path d="m177.5 130.8h-.7v1.2.1h1.3v-.1c0-.4 0-.9 0-1.3l-.6.1.7-.1zm.2 0h-.2.1z"/><path d="m167.3 167-.5 1.2 1.2.6.5-1.3-.5-.2.6.1-.7-.2-.6-.3z"/><path d="m178.2 798.2c-.4.2-.7.5-1.1.8l.8 1.1h.1c.3-.2.7-.5 1.1-.8z"/><path d="m168.6 113.5.9-1c-.3-.3-.7-.6-1-.9l-.9 1 .5-.5-.5.5c.3.3.7.6 1 .9z"/><path d="m171.2 156.9.6.3-.6-.3c-.2.5-.3.9-.5 1.3l1.3.5c.2-.4.3-.9.5-1.3z"/><path d="m168.1 805.1c.4-.2.9-.3 1.3-.5v-.1l-.5-1.2h-.1c-.4.2-.8.3-1.2.5v.1z"/><path d="m170.6 162.5v-.1l-1.3-.4.6.2-.6-.2-.5 1.2 1.3.5z"/><path d="m170.8 707.6 1.1-.7c-.1-.2-.3-.5-.4-.7l-.3-.5-1.1.7v.1c.2.3.4.7.7 1.1z"/><path d="m168 703 1.1-.7v-.1c-.2-.4-.5-.8-.7-1.2l-1.1.7v.1c.2.4.4.8.7 1.2z"/><path d="m402.8 699.8.1.4h.1l1.2-.3v-.1c-.1-.4-.2-.9-.3-1.3h-.1l-1.2.3c0 .4.1.7.2 1z"/><path d="m387.8 631.6 1.3-.3c-.1-.4-.2-.9-.3-1.3l-1.3.3v.1c.1.2.1.5.2.8z"/><path d="m384 426.4c.3-.3.6-.7.9-1.1v-.1l-1-.8c-.3.4-.6.8-.8 1.1z"/><path d="m381.4 605.2 1.3-.2v-.1c-.1-.3-.1-.5-.2-.8l-.1-.6-1.3.3v.1l.1.5c.1.3.2.6.2.8z"/><path d="m383.9 615.8 1.3-.3c-.1-.2-.1-.5-.2-.8 0-.2-.1-.4-.1-.6h-.1l-1.2.3v.1c.1.3.2.6.2.9z"/><path d="m404.4 705.5 1.2-.4v-.1c-.1-.4-.3-.9-.4-1.3h-.1l-1.1.3v.1c.1.4.2.9.4 1.4z"/><path d="m380.2 600 1.3-.2c-.1-.2-.1-.5-.2-.8l-.1-.6h-.1l-1.3.3c.2.4.3.8.4 1.3z"/><path d="m386.5 626.3 1.3-.3c-.1-.2-.1-.5-.2-.7 0-.2-.1-.4-.1-.6h-.1l-1.2.3v.1c.1.3.1.5.2.8z"/><path d="m387.4 422.2c.3-.4.6-.7.9-1l-1-.9h-.1c-.3.3-.6.7-.9 1z"/><path d="m382.6 610.2.1.3h.1l1.2-.3v-.1c-.1-.3-.2-.6-.2-.9l-.1-.4h-.1l-1.3.3v.1c.1.3.2.7.3 1z"/><path d="m375.7 578.8 1.3-.2c0-.2-.1-.4-.1-.6s-.1-.5-.1-.7h-.1l-1.3.2c.1.5.2.9.3 1.3z"/><path d="m376.3 440.4c.2-.4.4-.8.5-1.2v-.1l-1.2-.5h-.1c-.2.4-.3.8-.5 1.2z"/><path d="m376.8 584.1 1.3-.2-.1-.3c-.1-.3-.1-.7-.2-1h-.1l-1.2.3v.1c0 .2.1.4.1.6 0 0 .1.3.2.5z"/><path d="m377.9 589.4 1.3-.2v-.1c-.1-.4-.2-.9-.3-1.3h-.1l-1.3.3c.2.4.3.9.4 1.3z"/><path d="m379 594.7 1.3-.2-.3-1.4h-.1l-1.3.3c.2.4.3.9.4 1.3z"/><path d="m381.2 430.8c.2-.4.5-.8.7-1.1l-1.1-.7c-.2.3-.4.7-.7 1.2z"/><path d="m378.6 435.5c.2-.4.4-.9.6-1.2l-1.2-.7c-.2.4-.4.8-.6 1.2z"/><path d="m385.1 620.8v.2h.1l1.2-.3v-.1l-.1-.6c-.1-.2-.1-.5-.2-.7l-1.3.3c.2.5.3.9.3 1.2z"/><path d="m399.4 411.8c.5-.3.8-.5 1.2-.7v-.1l-.6-1.1h-.1c-.4.2-.8.5-1.1.7z"/><path d="m400.2 689.7 1.3-.3v-.1c-.1-.4-.2-.9-.3-1.3h-.1l-1.2.3v.1c.1.3.1.5.2.8z"/><path d="m399 684.5 1.3-.3-.1-.4c-.1-.3-.2-.7-.2-1h-.1l-1.2.3v.1z"/><path d="m397.7 679.1 1.3-.2v-.1c-.1-.4-.2-.9-.3-1.3h-.1l-1.3.3c.2.5.3.9.4 1.3z"/><path d="m396.6 673.8 1.3-.2c-.1-.4-.2-.9-.3-1.3h-.1l-1.2.3v.1c0 .2.1.4.1.7.1 0 .2.2.2.4z"/><path d="m404 409c.4-.2.8-.4 1.2-.6v-.1l-.6-1.2c-.5.2-.8.4-1.2.6z"/><path d="m401.3 694.2c.1.2.1.5.2.7h.1l1.3-.3v-.1c-.1-.2-.1-.5-.2-.7s-.1-.4-.2-.6h-.1l-1.3.3c.1.3.2.5.2.7z"/><path d="m394.5 663.2 1.3-.2v-.1c-.1-.4-.2-.9-.3-1.3h-.1l-1.3.2c.2.5.3 1 .4 1.4z"/><path d="m395.4 668.1.1.4 1.2-.2v-.1c-.1-.3-.1-.7-.2-1l-.1-.3h-.1l-1.3.2c.3.4.4.7.4 1z"/><path d="m392.4 652.6 1.3-.2v-.1l-.1-.5c-.1-.3-.1-.6-.2-.8l-1.3.2v.1c.1.5.2.9.3 1.3z"/><path d="m391.1 418.3c.4-.3.7-.6 1-.9v-.1l-.8-.9h-.1c-.4.3-.7.6-1 .9v.1z"/><path d="m390 640.8c.1.3.1.6.2.9l.1.4 1.3-.3v-.1c-.1-.4-.2-.8-.3-1.2s0 0 0-.1v-.1l-1.3.3v.2c-.1 0 0 0 0 0z"/><path d="m389 636.8 1.3-.2v-.1c-.1-.3-.1-.6-.2-.9l-.1-.4h-.1l-1.3.3v.1c.2.3.3.8.4 1.2z"/><path d="m393.4 657.9 1.3-.2v-.1c0-.2-.1-.5-.1-.7s-.1-.4-.1-.6l-1.3.2c0 .5.1 1 .2 1.4z"/><path d="m395.1 414.8c.4-.3.7-.6 1-.8v-.1l-.8-1c-.3.3-.7.5-1.1.8z"/><path d="m148.1 205.9.3.1-1.2-.7-.7 1.1 1.2.8.7-1.2z"/><path d="m123.9 662-.8 1v.1c.4.3.7.6 1.1.9l.9-1v-.1c-.3-.3-.6-.5-1-.8z"/><path d="m125.4 236.2.4.4-1-.9.5.4-.5-.5c-.3.3-.6.7-.9 1l1 .9c.3-.3.6-.7.9-1z"/><path d="m130.9 228.5 1 .8.9-1-1.1-.9.5.4-.5-.4z"/><path d="m124.3 91-.3.6 1.2.5.5-1.2-1.2-.5-.2.6.2-.6zm0-.2-.1.2v-.1z"/><path d="m133.6 669.4-.5-.4c-.2-.1-.4-.3-.6-.5h-.1l-.7 1 1.1.9z"/><path d="m118.9 659.6c.3.3.6.6 1.1.9l.9-1-.4-.4c-.2-.2-.4-.3-.6-.5z"/><path d="m126.4 806.3.2-1.3v-.1c-.4-.1-.9-.1-1.3-.2h-.1l-.2 1.3c.5.1 1 .2 1.4.3z"/><path d="m120.3 89.9.6-1.2c-.4-.2-.8-.4-1.2-.6l-.6 1.2.3-.6-.3.6c.4.2.8.4 1.2.6z"/><path d="m141.6 676.7.8-1v-.1c-.4-.3-.7-.5-1.1-.8l-.8 1v.1c.4.3.7.5 1.1.8z"/><path d="m142.6 808.1.1-1.3c-.4 0-.9-.1-1.3-.1l-.2 1.3h.1c.3 0 .8.1 1.3.1z"/><path d="m121.1 805.4.3-1.3h-.2c-.4-.1-.8-.1-1.1-.2l-.2 1.2.1.1c.2.1.6.2 1.1.2z"/><path d="m140.6 215.5 1.1.7.7-1.1-1-.8.5.4-.6-.3z"/><path d="m130.8 93-1.3-.5-.2.6.2-.6-.2.6-.3.6h.1l1.3.5zm-1.5.1.1-.1z"/><path d="m140.9 97-1.3-.5-.2.5v.1l.2-.6-.2.6-.3.6h.1l1.3.5zm-1.5.1v-.1z"/><path d="m128.1 665.3-.8 1v.1c.4.3.7.5 1.1.8l.8-1.1c-.3-.2-.7-.5-1.1-.8z"/><path d="m129.3 232.5-1-.8c-.3.3-.6.7-.9 1l1 .9c.3-.4.6-.8.9-1.1l-.5-.4z"/><path d="m131.8 807 .2-1.3h-.1c-.4-.1-.9-.1-1.3-.2h-.1l-.2 1.2c.6.2 1 .3 1.5.3z"/><path d="m98.9 643.6.9-1v-.1c-.3-.3-.6-.5-1-.9h-.1l-.9 1c.4.4.8.7 1.1 1z"/><path d="m99.9 801.3.3-1.2c-.2-.1-.4-.1-.7-.2-.2 0-.4-.1-.6-.2l-.3 1.3.5.1c.2 0 .5.1.8.2z"/><path d="m102.4 77.7-1.1-.8-.3.4.3-.5-.8 1.1 1.1.8zm-1.4-.3.3-.4z"/><path d="m96.2 74.6 1.1.8.8-1.1-1.1-.8-.3.5.3-.5zm.7-.8-.2.3.1-.1z"/><path d="m100.4 256.9.1.3z"/><path d="m105.1 802.4.3-1.3v-.1h-.4c-.3-.1-.6-.1-.9-.2h-.1l-.3 1.3.3.1c.4 0 .8.1 1.1.2z"/><path d="m103.4 254.1.7 1.2c.4-.2.8-.5 1.2-.7l-.7-1.1.4.6-.4-.6c-.4.1-.8.3-1.2.6z"/><path d="m103 647.1.9-1v-.1c-.4-.3-.7-.6-1-.9h-.1l-.8 1c.3.4.7.7 1 1z"/><path d="m117.3 243.4.4.5-.4-.5c-.4.3-.7.7-1 1l.9 1c.3-.3.7-.6 1-.9z"/><path d="m115.4 87.5.6-1.2c-.4-.2-.8-.4-1.2-.6l-.7 1.2.4-.6-.3.6z"/><path d="m121 239.7.5.4-.5-.4c-.3.3-.6.6-.9.9l1 .9c.3-.3.6-.6 1-1z"/><path d="m122 240.5v.1z"/><path d="m100.2 256.6-.3-.6c-.4.2-.8.4-1.2.6l.6 1.2c.4-.2.8-.4 1.2-.6l-.7-1.2z"/><path d="m115.8 804.5.2-1.3-.6-.1c-.3 0-.5-.1-.8-.2h-.1l-.2 1.2z"/><path d="m116.6 656.1c-.4-.3-.7-.5-1.1-.8l-.8 1v.1c.3.2.6.5.9.7l.2.1z"/><path d="m150.2 683.1.8-1v-.1c-.4-.3-.7-.6-1.1-.8h-.1l-.5.7-.2.3h.1c.3.3.7.6 1 .9z"/><path d="m161.8 694.3 1.1-.8c-.3-.3-.6-.7-.9-1l-1 .8c.1.2.4.6.8 1z"/><path d="m163.7 108.8.3-.4.1-.2z"/><path d="m161.7 182.3-1.2-.6-.6 1.2 1.2.6z"/><path d="m160.6 106.1c-.4-.2-.8-.5-1.2-.7l-.7 1.2.4-.6-.3.6c.4.2.8.4 1.2.7z"/><path d="m164.5 110.1.8-1.1c-.4-.3-.7-.5-1.1-.8l-.2.3.2-.3-.1.1-.6 1c.2.3.6.6 1 .8z"/><path d="m155.5 191.3.6.3-.6-.3-.7 1.2 1.2.6.7-1.1v-.1z"/><path d="m162.9 806.7c.4-.1.8-.2 1.3-.3v-.1l-.3-1.2h-.1c-.5.1-.9.2-1.3.3v.1z"/><path d="m162.3 178.1 1.2.6.6-1.3-.5-.2.5.2-1.2-.5z"/><path d="m165 698.5 1.1-.8v-.1c-.3-.4-.5-.7-.8-1.1h-.1l-1 .7v.1c.3.4.5.8.8 1.2z"/><path d="m176.3 716.8 1.1-.6v-.1l-.3-.4c-.2-.2-.3-.5-.4-.7l-1.2.7.3.4c.2.2.4.4.5.7z"/><path d="m157.3 806.3.1 1.3h.1c.5-.1.9-.1 1.3-.2v-.1l-.2-1.2h-.1c-.3.1-.7.2-1.2.2z"/><path d="m175.4 120.1-1.2.6.6-.3-.6.3c.2.4.4.8.6 1.2l1.2-.6c-.2-.4-.4-.8-.6-1.2z"/><path d="m179.1 721.5 1.2-.6v-.1c-.1-.2-.2-.4-.3-.6s-.2-.4-.3-.6l-1.1.7v.1c.2.3.4.7.6 1z"/><path d="m159.2 689.3c-.3-.3-.6-.7-.9-1l-.9.9c.3.4.6.7.9 1h.1z"/><path d="m165.8 172.2-.6-.3-.1.1-.5 1.2 1.2.5.6-1.2-.6-.3.6.2z"/><path d="m136.9 671.7-.8 1 .2.2.9.6.8-1.1z"/><path d="m158.1 186.5.5.4-.6-.4-.6 1.2 1.2.7.6-1.2z"/><path d="m148 808.3v-1.3c-.4 0-.8 0-1.3 0l-.1 1.3v.1c.5-.1 1-.1 1.4-.1z"/><path d="m106.8 80.9c-.4-.3-.7-.5-1.1-.8l-.8 1.1.4-.5-.4.5c.4.3.7.5 1.1.8z"/><path d="m146 679.8.8-1-.3-.3c-.3-.2-.6-.4-.8-.6h-.1l-.7 1v.1c.4.3.7.6 1.1.8z"/><path d="m138.2 218.8.6.4-.6-.4-.8 1.1 1.1.8.8-1.1v-.1z"/><path d="m144.7 211.7.8-1.1-.2-.1.2.1-1.2-.7-.7 1.1z"/><path d="m137.2 807.6.2-1.3c-.3 0-.6-.1-.9-.1h-.5l-.1 1.3c.4 0 .8.1 1.3.1z"/><path d="m135.3 96.2.5-1.3-1.3-.5-.2.6.2-.6-.2.6-.3.6h.1z"/><path d="m152.2 197.2 1.1.7.7-1.2v-.1l-1.1-.6.5.4-.6-.4z"/><path d="m136.1 224-.5-.4.5.3-1.1-.8-.8 1.1 1.1.8z"/><path d="m154.4 686.6.9-1v-.1c-.4-.4-.7-.6-1-.9h-.1l-.9 1c.4.4.7.7 1.1 1z"/><path d="m152 806.8v1.3c.5 0 .9 0 1.4-.1h.1l-.1-1.3h-.1c-.4.1-.9.1-1.3.1z"/><path d="m155.2 104.7.6-1.2c-.4-.2-.8-.4-1.2-.6l-.6 1.2.3-.6-.3.6c.4.2.8.4 1.2.6z"/><path d="m150.3 102.4.6-1.2c-.4-.2-.8-.4-1.2-.6l-.3.6.2-.6-.2.6-.3.6zm-.9-1.2.1-.1z"/><path d="m150.8 201.1.4.3-1.1-.7.6.3-.6-.3-.7 1.1 1.1.7.7-1.1z"/><path d="m144.4 99.1-.3.6h.1l1.3.5.5-1.2-1.3-.5-.3.6.2-.6zm0-.1-.1.1z"/><path d="m175.4 142.7 1.3.3c.1-.4.2-.9.3-1.3v-.1l-.7-.1h.1l-.7-.1c-.1.4-.2.9-.3 1.3z"/></g></svg>