<svg version="1.1" xmlns="http://www.w3.org/2000/svg" x="0px" y="0px" viewBox="0 0 320 460" style="enable-background:new 0 0 320 460;">
<style type="text/css">
  .st0{vector-effect:non-scaling-stroke;fill:none;opacity:0.2;stroke:#7F7F7F;stroke-width:2px;stroke-dasharray:2px,5px;}
</style>
<path class="st0" d="M4.4,409c12.2,2.6,46.6,10,56.6,11.5c12.2,1.9,32,6.8,42-14.8s-22.5-50.6-37.3-60.4
  c-16.9-11.3-40.7-28.1-34-79.5c6.6-50.5,21.2-86.2-29.2-87"/>
<path class="st0" d="M4.4,1.3C17.3,6.4,39.1,22.6,49,29.8c11.1,8,7.5,5.7,25.9,14.3s18.6,11.7,19.8,21.1s-15.6,36.5-22.2,46
  c-14.5,21-63.4,24.2-70.2,44.5"/>
<path class="st0" d="M315.6,318.4c-4.5,1.4-12.2,4.6-21,11.8c-14.3,11.6-24-14.5-26.6-22.8c-5.8-18.9-11.9-48.1,3.8-79.1
  c3.8-7.5,7.3-16.8,31.5-12.1c3.7,0.7,8.2,2.3,14.5-0.9"/>
<path class="st0" d="M317.5,360.1c-9.5,1.5-43.9,7.8-61.4,22.6c-20.4,17.2-26.2,14.3-32.1,3.5c-5.9-10.9-36.7-106.4-26-154.5
  c10.8-48.1,37.9-34.2,54.2-27.5c9,3.7,49.6,2.4,57-28.2c4.6-18.9,2-52.9-27.1-68.5c-16.3-8.7-46.9-21.9-12.6-72.8
  C277.2,23.3,295-1.5,317.8,8"/>
<path class="st0" d="M316.7,146.8c-4.7-5.7-11.5-18.6,1.7-36.2"/>
</svg>