<svg enable-background="new 0 0 600 70" viewBox="0 0 600 70" xmlns="http://www.w3.org/2000/svg"><path d="m0 0h600v70h-600z" fill="#ecc500"/><g fill="#ba9d00"><path d="m136.4 62.6c2.4-5.5 3.9-11.2 5.4-16.8 1.8-6.8 3.6-13.7 7.1-20.1 4.4-8.1 7.7-16.8 9.7-25.8h-1c-2 8.8-5.2 17.3-9.5 25.3-3.5 6.5-5.4 13.5-7.2 20.3-1.5 5.5-3 11.2-5.3 16.6-1.2 2.7-2.6 5.3-4.2 7.8h1.2c1.4-2.3 2.7-4.7 3.8-7.3z"/><path d="m126.9 58.4c1.9-4.3 3.2-8.8 4.5-13.2 1.2-4.2 2.5-8.6 4.3-12.9 5.2-12.1 8-22.6 10.4-32.3h-1c-2.3 9.6-5.1 20-10.3 31.9-1.9 4.3-3.1 8.7-4.3 13-1.3 4.6-2.5 8.9-4.4 13.1-2 4.4-4.7 8.5-8 12h1.4c2.9-3.5 5.4-7.4 7.4-11.6z"/><path d="m106 67c10.8-7.3 13.1-15.9 16.3-27.8l.3-1.1c4.3-15.8 6.9-25.4 15.8-38.1h-1.2c-8.7 12.5-11.3 22.1-15.6 37.8l-.3 1.1c-3.2 11.7-5.4 20.1-15.9 27.2-2.5 1.8-5.4 3.1-8.3 3.8h3.3c2-.7 3.9-1.7 5.6-2.9z"/><path d="m197.9 0c-.2 3.1 0 6.3.7 9.4 1.3 5.4 6.8 14.4 12.1 18.5 1.3 1 2.7 1.3 4.1 1.3 2.1 0 4.2-.7 6.4-1.4 1.5-.5 3.1-1 4.7-1.3 9.6-1.6 16.8-4.4 23.2-9.1 5.9-4.2 8.3-10.2 7.1-17.4h-1c1.2 6.8-1.1 12.5-6.7 16.5-6.4 4.6-13.2 7.3-22.8 8.9-1.6.3-3.2.8-4.8 1.3-3.5 1.2-6.9 2.3-9.6.2-5.2-3.9-10.5-12.7-11.7-17.9-.7-3-.9-6.1-.7-9.1h-1z"/><path d="m84.6 67-1.2-1.2c-10.3-11-15.1-16-26.4-18-1.3-.2-3.3-.3-5.6-.3-7.3-.2-18.4-.4-19.4-7.4-.3-2.2.3-4.2 1.7-5.8 3.9-4.3 12.7-5.2 16.8-5.1 10.4.5 20.6-1 30.5-4.4 15-5.3 22.2-13.5 28.7-24.9h-1.2c-6.3 10.9-13.4 18.8-27.9 23.9-9.7 3.3-19.9 4.8-30.1 4.3-4.3-.1-13.5.9-17.6 5.4-1.7 1.8-2.3 4-2 6.6 1.1 7.9 12.7 8.1 20.4 8.2 2.3 0 4.2.1 5.5.3 11 2 15.4 6.6 25.8 17.7l1.2 1.2c.9.9 1.9 1.7 2.9 2.3h2.5c-1.7-.4-3.3-1.4-4.6-2.8z"/><path d="m208.4 0h-1.1c-.2.6-.4 1.2-.5 1.8-.9 5 .8 9.5 4.8 13 3.8 3.1 8.3 5.1 13.1 5.8.9.1 1.7.2 2.6.2 5.7 0 11.2-2.5 15.1-6.8 3.6-4.1 4.9-9.2 3.5-14h-1c1.4 4.6.2 9.4-3.2 13.3-4.2 4.8-10.5 7.1-16.8 6.3-4.7-.7-9-2.6-12.6-5.6-2.6-2.3-5.5-6.3-4.5-12.1.1-.6.3-1.3.6-1.9z"/><path d="m245.6 68.9c-3.3.2-6.5.6-9.8 1.1h8.6c.4 0 .9-.1 1.3-.1 1.4-.1 2.9-.1 4.3.1h4.2c-2.8-1-5.7-1.4-8.6-1.1z"/><path d="m188.6 0h-1c-.3 1.3-.5 2.7-.6 4.1-.8 8 5 24.3 11.1 31.1 1.7 1.9 3.6 2.6 5.8 2.6 2.8 0 5.9-1.2 8.9-2.4 2.6-1 5.3-2.1 7.9-2.5 13.4-1.9 24.6-4.6 36.3-12 8-5.1 11.7-12 11-20.7h-1c.7 8.3-2.8 15-10.6 19.9-11.5 7.3-22.6 10-35.9 11.9-2.7.4-5.5 1.5-8.2 2.6-5.4 2.2-10.1 4-13.6.1-5.9-6.6-11.6-22.4-10.8-30.3.2-1.6.4-3 .7-4.4z"/><path d="m249.4 63-1.6.2c-9.3.9-19 1.8-28.3 3.2-3.5.6-7.8 1.5-11.1 3.6h2c2.9-1.5 6.4-2.2 9.3-2.6 9.3-1.5 19-2.4 28.3-3.2l1.6-.2c7.2-.8 14.2 1.4 19.6 6h1.5c-5.8-5.3-13.5-7.9-21.3-7z"/><path d="m49.3 61.1c-3.4-.3-6.8-.4-10.2-.3-3 .1-6.5.6-10.5 1.2l-.8.1c-10 1.4-21.6-2.1-24.8-13.1-3-10.3 1.3-20.7 12.8-31 1.5-1.3 3.1-2.5 4.8-3.6 8.5-6 19.4-10.6 34.1-14.4h-3.8c-13.1 3.7-23 8-30.9 13.6-1.7 1.1-3.3 2.4-4.9 3.7-11.8 10.5-16.2 21.3-13.1 31.9 2.9 10 13.3 15.6 25.9 13.8l.8-.1c4-.6 7.5-1 10.4-1.2 3.4-.1 6.8 0 10.1.3 5.7.5 9.7 4.1 12.9 7.9h1.3c-3.4-4.1-7.8-8.3-14.1-8.8z"/><path d="m280.5 61.4c-9-5.5-20.9-5.1-27.2-4.3-7.7.9-15.5 1.5-23 2-5.4.4-10.9.8-16.3 1.3-8.1.8-16.8 2.6-20.2 9.6h1.1c3.3-6.2 11.5-7.8 19.2-8.6 5.4-.5 11-.9 16.3-1.3 7.6-.5 15.4-1.1 23.1-2 6.2-.8 17.9-1.2 26.6 4.1 3.2 2 5.1 4.7 5.5 7.8h1c-.6-3.4-2.6-6.5-6.1-8.6z"/><path d="m175.7 66.6c-5-2.1-9.8-.9-13.9 3.4h1.4c3.6-3.5 7.7-4.3 12.1-2.5 1.4.6 2.8 1.4 4 2.5h1.4c-1.4-1.5-3.1-2.6-5-3.4z"/><path d="m382 58.2c-1.3-1.5-2.5-3.1-3.9-4.8-3-3.9-6.1-7.9-9.9-11-4.3-3.5-11.5-6.6-17.7-3.5-7.9 3.9-14.6 11.9-16.2 19.6-.9 4.3-.1 8.2 2.1 11.6h1.3c-2.4-3.2-3.3-7.1-2.4-11.4 1.5-7.2 8.1-15.1 15.6-18.9 5.4-2.6 12.2-.2 16.6 3.4 3.7 3 6.8 7 9.8 10.9 1.3 1.6 2.6 3.3 3.9 4.9 3.1 3.7 6 7.4 8.6 11.1h1.2c-2.7-4-5.7-7.9-9-11.9z"/><path d="m461.8 43.5c1.7-11 6.3-16.9 12.2-24.4 1.9-2.4 3.8-4.8 5.8-7.6 3-4.2 6.4-8 10.1-11.5h-1.5c-3.5 3.3-6.7 7-9.5 10.9-2 2.8-3.9 5.2-5.8 7.6-6 7.6-10.7 13.6-12.4 24.9-1 6.4-1.8 18 2.9 26.6h1.2c-4.8-8.4-4-20.1-3-26.5z"/><path d="m527.8.8c-1.1 2.4-2.4 5.4-4.6 6.8-1.8 1.1-3.5 1.6-5.4 2-2.2.6-4.5 1.1-7.1 2.9l-.9.6c-3.2 2.2-5.7 4-8.4 6.9-.7.7-1.3 1.4-2 2.1-.8.9-1.6 1.7-2.3 2.5-2.7 2.9-4.7 6.3-6.2 10-1.7 4.6-2.2 9.5-1.2 13.2 1 4 5.1 6.7 8.1 8.7l.2.1c5.5 3.7 8.8 3.2 14.3 2.4 1-.1 2.1-.3 3.3-.5 5.1-.6 10.8.8 16.8 2.3.9.2 1.8.4 2.7.7 3.1.8 6 1.2 8.7 1.2 5.1 0 9.7-1.3 14.2-4.1 15.2-9.3 25.5-22.7 27.6-35.8.4-2.7 1.3-6 2.2-9.5 1.1-4.1 2.4-8.8 3-13.4h-1c-.7 4.5-1.9 9.1-3 13.1-.9 3.5-1.8 6.8-2.3 9.6-2 12.9-12.1 26-27.1 35.1-6.7 4.1-13.6 5-22.2 2.8-.9-.2-1.8-.4-2.7-.7-6.1-1.5-11.8-3-17.2-2.3-1.2.1-2.3.3-3.3.5-5.4.8-8.4 1.2-13.6-2.3l-.2-.1c-3-2-6.7-4.5-7.7-8.2-.9-3.5-.5-8.2 1.2-12.6 1.4-3.6 3.4-6.8 6-9.7.7-.8 1.5-1.7 2.3-2.5.6-.7 1.3-1.4 2-2.1 2.6-2.9 5.1-4.6 8.2-6.8l.9-.6c2.4-1.7 4.6-2.2 6.8-2.8 1.9-.5 3.7-1 5.7-2.2 2.4-1.5 3.8-4.7 4.9-7.2.2-.4.4-.8.5-1.2h-1.1c.1.5 0 .8-.1 1.1z"/><path d="m502.9 69.3c-1 0-2 0-2.9 0-5 0-9 0-13.7-2.5-2.7-1.5-6.5-3.8-8.2-7.5-2.4-5.2-2.9-12.7-1.2-20.1 1.6-7.2 4.8-11.6 8-15.6.7-.9 1.5-1.8 2.3-2.8 1.3-1.5 2.5-3.1 3.9-4.8 3.9-5 7.3-7.8 12.1-11.7l1.2-.9c1.8-1.5 3.8-2.6 6-3.5h-2.5c-1.5.7-2.9 1.6-4.2 2.7l-1.2.9c-4.8 3.9-8.3 6.8-12.2 11.9-1.3 1.7-2.6 3.3-3.8 4.8-.8.9-1.5 1.9-2.3 2.8-3.2 4.1-6.5 8.6-8.2 16-1.7 7.6-1.2 15.3 1.3 20.7 1.8 4 5.8 6.4 8.6 8 2.4 1.3 4.6 2 6.8 2.3h16.8c-2.2-.4-4.4-.6-6.6-.7z"/><path d="m510.9 27.2c8.5-7.2 21-4.8 26-3.4 2.7.7 11.5-2.2 13.8-3.4 2.2-1.1 4-5.4 6.1-10.3 1.6-3.8 3.2-7.7 5.1-10.1h-1.2c-1.8 2.5-3.3 6.1-4.8 9.7-1.8 4.4-3.7 8.9-5.6 9.8-2.5 1.2-10.8 3.9-13.1 3.3-6.4-1.8-18.4-3.7-26.9 3.6-1.7 1.5-7.4 6.5-7.8 9.5-.5 3.8 3.2 6.5 6.2 8.6.7.5 1.3.9 1.8 1.3 3.6 2.9 6.1 4.1 8.7 4.1s5.3-1.1 9.5-2.8c1.9-.8 5.5-1.6 9.6-2.5 11-2.5 26.2-6 30.2-13.1 1.1-2 1.3-4.1.6-6.3-.6-1.9.2-5.4 1.2-9 1.4-5.7 3-12.1.2-16.2h-1.5c3.1 3.8 1.5 10.2.1 16-1 3.9-1.8 7.3-1.1 9.5.6 2 .5 3.8-.5 5.5-3.8 6.7-18.7 10.1-29.6 12.6-4.1 1-7.7 1.8-9.7 2.6-8.5 3.4-10.5 4.2-17.1-1.1-.5-.4-1.2-.9-1.8-1.4-2.8-2-6.2-4.4-5.8-7.6.2-2.1 4.1-6.1 7.4-8.9z"/><path d="m600 57.5v-2c-2.9 5-5.9 9.8-9.2 14.5h1.2c2.8-4 5.5-8.2 8-12.5z"/><path d="m600 27.1v-2.8c-6.5 17.7-17.1 34.2-29.6 45.7h1.5c11.7-11 21.7-26.3 28.1-42.9z"/><path d="m165.7 0c-2.5 15 3.5 40.7 10.3 51.1 2.4 3.7 5.4 5.1 8.8 5.1 4.3 0 9.3-2.2 14.4-4.6 4.7-2.1 9.6-4.4 14.3-4.9 21.6-2.6 41.2-5.8 62.4-17.9 12.3-7.1 18.5-16.7 18.6-28.8h-1c0 11.7-6.1 21.1-18.1 27.9-21.1 12.1-40.5 15.2-62 17.8-4.8.6-9.8 2.8-14.6 5-9.1 4.1-16.9 7.7-22-.2-6.7-10.3-12.6-35.8-10.1-50.6h-1z"/><path d="m176.7 0c-2.6 11 3.6 34.1 10.2 43 2.1 2.8 4.6 3.9 7.3 3.9 3.5 0 7.5-1.7 11.7-3.5 3.7-1.6 7.5-3.2 11.1-3.7 19.5-2.5 33.8-5.8 49.3-15 10.2-6 15.1-14.3 14.8-24.7h-1c.3 10-4.5 18-14.3 23.8-15.4 9.1-29.6 12.4-48.9 14.9-3.8.5-7.7 2.2-11.4 3.8-7.2 3.1-13.5 5.8-17.7 0-6.5-8.9-12.7-31.8-9.9-42.5h-1.2z"/><path d="m332 69.1c-2.9-9.4-5.1-16.9-17.2-24.2-7.6-4.6-12.1-10.5-13.3-17.5-1.4-8.3 1.9-18.3 9.2-27.4h-1.3c-7.1 9.2-10.4 19.2-8.9 27.6 1.3 7.3 5.9 13.5 13.7 18.2 11.8 7.1 14 14.4 16.8 23.6l.2.6h1z"/><path d="m398 7.3c4.7 5.7 6.8 14 9.1 22.7 3.5 13.4 7 27.3 21 31.4 1.9.6 3.7.8 5.4.8 2.7 0 5.2-.7 7.4-2.1 9.3-6.1 11.5-23.8 13.3-38.1.7-5.7 1.3-10.6 2.3-13.8.9-2.9 2.1-5.7 3.7-8.3h-1.2c-1.5 2.5-2.6 5.2-3.5 8-1 3.2-1.6 8.2-2.3 13.9-1.7 14-3.9 31.5-12.8 37.3-3.3 2.2-7.2 2.6-12 1.2-13.4-3.9-16.9-17.5-20.3-30.7-2.2-8.4-4.4-17.1-9.3-23.1-2.2-2.6-4.8-4.8-7.7-6.7h-1.9c3.3 2.2 6.3 4.6 8.8 7.5z"/><path d="m394.8 55.8c-6.5-12-13.7-23.8-21.4-35-1.8-2.7-3.6-5.5-5.4-8.3-2.6-4.2-5.4-8.5-8.4-12.5h-1.2c3.2 4.1 6 8.6 8.8 13 1.8 2.8 3.6 5.7 5.4 8.3 7.7 11.2 14.9 23 21.4 34.9 2.5 4.7 5.3 9.3 8.4 13.7h1.2c-3.3-4.5-6.2-9.2-8.8-14.1z"/><path d="m408.1 7.5c3 6.9 6 14 14.3 15.7.8.2 1.7.3 2.4.3 1.8 0 3.4-.5 4.8-1.4 5.1-3.5 6.6-12.5 7.7-19.8.1-.8.3-1.6.4-2.4h-1c-.1.7-.2 1.4-.4 2.2-1.1 7.1-2.5 15.8-7.3 19.1-1.8 1.2-3.9 1.6-6.4 1-7.8-1.7-10.6-8.2-13.6-15.2-1-2.4-2.1-4.9-3.4-7.1h-1.2c1.4 2.4 2.6 5.1 3.7 7.6z"/></g></svg>